<svg width="88" height="30" viewBox="0 0 88 30" fill="none" xmlns="http://www.w3.org/2000/svg">
<rect width="88" height="30" fill="#E5E5E5"/>
<g clip-path="url(#clip0_0_1)">
<rect width="1920" height="8106" transform="translate(-409 -89)" fill="white"/>
<rect x="-405" y="-56" width="1920" height="700" fill="white"/>
<g filter="url(#filter0_d_0_1)">
<mask id="path-2-outside-1_0_1" maskUnits="userSpaceOnUse" x="-1" y="3" width="90" height="21" fill="black">
<rect fill="white" x="-1" y="3" width="90" height="21"/>
<path d="M18.048 12.976V14.272C18.048 16.672 17.28 18.616 15.744 20.104C14.208 21.592 12.224 22.336 9.792 22.336C7.2 22.336 5.048 21.496 3.336 19.816C1.64 18.12 0.792 16.056 0.792 13.624C0.792 11.176 1.632 9.104 3.312 7.408C5.008 5.712 7.104 4.864 9.6 4.864C11.168 4.864 12.6 5.224 13.896 5.944C15.192 6.648 16.2 7.592 16.92 8.776L14.088 10.408C13.688 9.72 13.08 9.16 12.264 8.728C11.464 8.296 10.568 8.08 9.576 8.08C7.976 8.08 6.656 8.608 5.616 9.664C4.592 10.704 4.08 12.024 4.08 13.624C4.08 15.208 4.6 16.52 5.64 17.56C6.696 18.584 8.088 19.096 9.816 19.096C11.096 19.096 12.152 18.816 12.984 18.256C13.832 17.68 14.408 16.896 14.712 15.904H9.624V12.976H18.048ZM23.3558 12.064C23.6438 11.296 24.1158 10.72 24.7718 10.336C25.4438 9.952 26.1878 9.76 27.0038 9.76V13.216C26.0598 13.104 25.2118 13.296 24.4598 13.792C23.7238 14.288 23.3558 15.112 23.3558 16.264V22H20.2598V10H23.3558V12.064ZM38.5931 20.512C37.3611 21.728 35.8571 22.336 34.0811 22.336C32.3051 22.336 30.8011 21.728 29.5691 20.512C28.3531 19.28 27.7451 17.776 27.7451 16C27.7451 14.224 28.3531 12.728 29.5691 11.512C30.8011 10.28 32.3051 9.664 34.0811 9.664C35.8571 9.664 37.3611 10.28 38.5931 11.512C39.8251 12.728 40.4411 14.224 40.4411 16C40.4411 17.776 39.8251 19.28 38.5931 20.512ZM31.7531 18.376C32.3771 19 33.1531 19.312 34.0811 19.312C35.0091 19.312 35.7851 19 36.4091 18.376C37.0331 17.752 37.3451 16.96 37.3451 16C37.3451 15.04 37.0331 14.248 36.4091 13.624C35.7851 13 35.0091 12.688 34.0811 12.688C33.1531 12.688 32.3771 13 31.7531 13.624C31.1451 14.248 30.8411 15.04 30.8411 16C30.8411 16.96 31.1451 17.752 31.7531 18.376ZM55.6624 10H58.9504L55.1344 22H52.1824L49.9744 14.728L47.7664 22H44.8144L40.9984 10H44.2864L46.3264 17.368L48.5104 10H51.4384L53.6224 17.392L55.6624 10Z"/>
<path d="M70.9151 13.288C72.3871 14.136 73.1231 15.416 73.1231 17.128C73.1231 18.552 72.6191 19.72 71.6111 20.632C70.6031 21.544 69.3631 22 67.8911 22H60.7631V5.2H67.3871C68.8271 5.2 70.0351 5.648 71.0111 6.544C72.0031 7.424 72.4991 8.552 72.4991 9.928C72.4991 11.32 71.9711 12.44 70.9151 13.288ZM67.3871 8.296H64.0751V11.992H67.3871C67.8991 11.992 68.3231 11.816 68.6591 11.464C69.0111 11.112 69.1871 10.672 69.1871 10.144C69.1871 9.616 69.0191 9.176 68.6831 8.824C68.3471 8.472 67.9151 8.296 67.3871 8.296ZM67.8911 18.904C68.4511 18.904 68.9151 18.72 69.2831 18.352C69.6511 17.968 69.8351 17.488 69.8351 16.912C69.8351 16.352 69.6511 15.888 69.2831 15.52C68.9151 15.136 68.4511 14.944 67.8911 14.944H64.0751V18.904H67.8911ZM77.9539 17.272C78.3699 18.776 79.4979 19.528 81.3379 19.528C82.5219 19.528 83.4179 19.128 84.0259 18.328L86.5219 19.768C85.3379 21.48 83.5939 22.336 81.2899 22.336C79.3059 22.336 77.7139 21.736 76.5139 20.536C75.3139 19.336 74.7139 17.824 74.7139 16C74.7139 14.192 75.3059 12.688 76.4899 11.488C77.6739 10.272 79.1939 9.664 81.0499 9.664C82.8099 9.664 84.2579 10.272 85.3939 11.488C86.5459 12.704 87.1219 14.208 87.1219 16C87.1219 16.4 87.0819 16.824 87.0019 17.272H77.9539ZM77.9059 14.872H84.0259C83.8499 14.056 83.4819 13.448 82.9219 13.048C82.3779 12.648 81.7539 12.448 81.0499 12.448C80.2179 12.448 79.5299 12.664 78.9859 13.096C78.4419 13.512 78.0819 14.104 77.9059 14.872Z"/>
</mask>
<path d="M18.048 12.976V14.272C18.048 16.672 17.28 18.616 15.744 20.104C14.208 21.592 12.224 22.336 9.792 22.336C7.2 22.336 5.048 21.496 3.336 19.816C1.64 18.12 0.792 16.056 0.792 13.624C0.792 11.176 1.632 9.104 3.312 7.408C5.008 5.712 7.104 4.864 9.6 4.864C11.168 4.864 12.6 5.224 13.896 5.944C15.192 6.648 16.2 7.592 16.92 8.776L14.088 10.408C13.688 9.72 13.08 9.16 12.264 8.728C11.464 8.296 10.568 8.08 9.576 8.08C7.976 8.08 6.656 8.608 5.616 9.664C4.592 10.704 4.08 12.024 4.08 13.624C4.08 15.208 4.6 16.52 5.64 17.56C6.696 18.584 8.088 19.096 9.816 19.096C11.096 19.096 12.152 18.816 12.984 18.256C13.832 17.68 14.408 16.896 14.712 15.904H9.624V12.976H18.048ZM23.3558 12.064C23.6438 11.296 24.1158 10.72 24.7718 10.336C25.4438 9.952 26.1878 9.76 27.0038 9.76V13.216C26.0598 13.104 25.2118 13.296 24.4598 13.792C23.7238 14.288 23.3558 15.112 23.3558 16.264V22H20.2598V10H23.3558V12.064ZM38.5931 20.512C37.3611 21.728 35.8571 22.336 34.0811 22.336C32.3051 22.336 30.8011 21.728 29.5691 20.512C28.3531 19.28 27.7451 17.776 27.7451 16C27.7451 14.224 28.3531 12.728 29.5691 11.512C30.8011 10.28 32.3051 9.664 34.0811 9.664C35.8571 9.664 37.3611 10.28 38.5931 11.512C39.8251 12.728 40.4411 14.224 40.4411 16C40.4411 17.776 39.8251 19.28 38.5931 20.512ZM31.7531 18.376C32.3771 19 33.1531 19.312 34.0811 19.312C35.0091 19.312 35.7851 19 36.4091 18.376C37.0331 17.752 37.3451 16.96 37.3451 16C37.3451 15.04 37.0331 14.248 36.4091 13.624C35.7851 13 35.0091 12.688 34.0811 12.688C33.1531 12.688 32.3771 13 31.7531 13.624C31.1451 14.248 30.8411 15.04 30.8411 16C30.8411 16.96 31.1451 17.752 31.7531 18.376ZM55.6624 10H58.9504L55.1344 22H52.1824L49.9744 14.728L47.7664 22H44.8144L40.9984 10H44.2864L46.3264 17.368L48.5104 10H51.4384L53.6224 17.392L55.6624 10Z" fill="#145F12"/>
<path d="M70.9151 13.288C72.3871 14.136 73.1231 15.416 73.1231 17.128C73.1231 18.552 72.6191 19.72 71.6111 20.632C70.6031 21.544 69.3631 22 67.8911 22H60.7631V5.2H67.3871C68.8271 5.2 70.0351 5.648 71.0111 6.544C72.0031 7.424 72.4991 8.552 72.4991 9.928C72.4991 11.32 71.9711 12.44 70.9151 13.288ZM67.3871 8.296H64.0751V11.992H67.3871C67.8991 11.992 68.3231 11.816 68.6591 11.464C69.0111 11.112 69.1871 10.672 69.1871 10.144C69.1871 9.616 69.0191 9.176 68.6831 8.824C68.3471 8.472 67.9151 8.296 67.3871 8.296ZM67.8911 18.904C68.4511 18.904 68.9151 18.72 69.2831 18.352C69.6511 17.968 69.8351 17.488 69.8351 16.912C69.8351 16.352 69.6511 15.888 69.2831 15.52C68.9151 15.136 68.4511 14.944 67.8911 14.944H64.0751V18.904H67.8911ZM77.9539 17.272C78.3699 18.776 79.4979 19.528 81.3379 19.528C82.5219 19.528 83.4179 19.128 84.0259 18.328L86.5219 19.768C85.3379 21.48 83.5939 22.336 81.2899 22.336C79.3059 22.336 77.7139 21.736 76.5139 20.536C75.3139 19.336 74.7139 17.824 74.7139 16C74.7139 14.192 75.3059 12.688 76.4899 11.488C77.6739 10.272 79.1939 9.664 81.0499 9.664C82.8099 9.664 84.2579 10.272 85.3939 11.488C86.5459 12.704 87.1219 14.208 87.1219 16C87.1219 16.4 87.0819 16.824 87.0019 17.272H77.9539ZM77.9059 14.872H84.0259C83.8499 14.056 83.4819 13.448 82.9219 13.048C82.3779 12.648 81.7539 12.448 81.0499 12.448C80.2179 12.448 79.5299 12.664 78.9859 13.096C78.4419 13.512 78.0819 14.104 77.9059 14.872Z" fill="#F25822"/>
<path d="M18.048 12.976H19.048V11.976H18.048V12.976ZM15.744 20.104L15.0482 19.3858L15.744 20.104ZM3.336 19.816L2.62886 20.5231L2.6356 20.5297L3.336 19.816ZM3.312 7.408L2.60489 6.70088L2.60155 6.70425L3.312 7.408ZM13.896 5.944L13.4103 6.8182L13.4187 6.82272L13.896 5.944ZM16.92 8.776L17.4193 9.64243L18.3064 9.13122L17.7744 8.25642L16.92 8.776ZM14.088 10.408L13.2235 10.9106L13.7242 11.7718L14.5873 11.2744L14.088 10.408ZM12.264 8.728L11.7888 9.60793L11.7961 9.61179L12.264 8.728ZM5.616 9.664L4.90352 8.96231L4.90343 8.9624L5.616 9.664ZM5.64 17.56L4.93289 18.2671L4.93833 18.2725L4.94385 18.2779L5.64 17.56ZM12.984 18.256L13.5424 19.0856L13.5459 19.0832L12.984 18.256ZM14.712 15.904L15.6681 16.197L16.0644 14.904H14.712V15.904ZM9.624 15.904H8.624V16.904H9.624V15.904ZM9.624 12.976V11.976H8.624V12.976H9.624ZM17.048 12.976V14.272H19.048V12.976H17.048ZM17.048 14.272C17.048 16.4376 16.3651 18.11 15.0482 19.3858L16.4398 20.8222C18.1949 19.122 19.048 16.9064 19.048 14.272H17.048ZM15.0482 19.3858C13.7247 20.6679 12.0029 21.336 9.792 21.336V23.336C12.4451 23.336 14.6913 22.5161 16.4398 20.8222L15.0482 19.3858ZM9.792 21.336C7.4387 21.336 5.54548 20.5831 4.03641 19.1023L2.6356 20.5297C4.55052 22.4089 6.9613 23.336 9.792 23.336V21.336ZM4.04311 19.1089C2.53756 17.6033 1.792 15.7949 1.792 13.624H-0.208C-0.208 16.3171 0.742436 18.6367 2.62889 20.5231L4.04311 19.1089ZM1.792 13.624C1.792 11.4321 2.53315 9.61523 4.02245 8.11175L2.60155 6.70425C0.730845 8.59277 -0.208 10.9199 -0.208 13.624H1.792ZM4.01911 8.11511C5.51924 6.61498 7.35719 5.864 9.6 5.864V3.864C6.85081 3.864 4.49677 4.80902 2.60489 6.70089L4.01911 8.11511ZM9.6 5.864C11.0082 5.864 12.2715 6.18547 13.4104 6.81816L14.3816 5.06984C12.9285 4.26252 11.3278 3.864 9.6 3.864V5.864ZM13.4187 6.82272C14.5698 7.44804 15.4433 8.27226 16.0656 9.29558L17.7744 8.25642C16.9567 6.91174 15.8142 5.84796 14.3733 5.06528L13.4187 6.82272ZM16.4207 7.90957L13.5887 9.54157L14.5873 11.2744L17.4193 9.64243L16.4207 7.90957ZM14.9525 9.90538C14.4443 9.03126 13.6862 8.34942 12.7319 7.84421L11.7961 9.61179C12.4738 9.97058 12.9317 10.4087 13.2235 10.9106L14.9525 9.90538ZM12.7392 7.84809C11.7801 7.33023 10.7184 7.08 9.576 7.08V9.08C10.4176 9.08 11.1479 9.26177 11.7889 9.6079L12.7392 7.84809ZM9.576 7.08C7.73172 7.08 6.1474 7.69929 4.90352 8.96231L6.32848 10.3657C7.1646 9.51671 8.22028 9.08 9.576 9.08V7.08ZM4.90343 8.9624C3.67666 10.2083 3.08 11.7892 3.08 13.624H5.08C5.08 12.2588 5.50734 11.1997 6.32857 10.3656L4.90343 8.9624ZM3.08 13.624C3.08 15.4507 3.68998 17.0242 4.93289 18.2671L6.34711 16.8529C5.51002 16.0158 5.08 14.9653 5.08 13.624H3.08ZM4.94385 18.2779C6.21869 19.5141 7.87681 20.096 9.816 20.096V18.096C8.29919 18.096 7.17331 17.6539 6.33615 16.8421L4.94385 18.2779ZM9.816 20.096C11.2402 20.096 12.5051 19.7837 13.5424 19.0856L12.4256 17.4264C11.7989 17.8483 10.9518 18.096 9.816 18.096V20.096ZM13.5459 19.0832C14.5848 18.3776 15.2983 17.4039 15.6681 16.197L13.7559 15.611C13.5177 16.3881 13.0792 16.9824 12.4221 17.4288L13.5459 19.0832ZM14.712 14.904H9.624V16.904H14.712V14.904ZM10.624 15.904V12.976H8.624V15.904H10.624ZM9.624 13.976H18.048V11.976H9.624V13.976ZM23.3558 12.064H22.3558L24.2921 12.4151L23.3558 12.064ZM24.7717 10.336L24.2756 9.46771L24.2666 9.47299L24.7717 10.336ZM27.0037 9.76H28.0037V8.76H27.0037V9.76ZM27.0037 13.216L26.8859 14.209L28.0037 14.3417V13.216H27.0037ZM24.4598 13.792L23.9091 12.9572L23.9009 12.9627L24.4598 13.792ZM23.3558 22V23H24.3558V22H23.3558ZM20.2598 22H19.2598V23H20.2598V22ZM20.2598 10V9H19.2598V10H20.2598ZM23.3558 10H24.3558V9H23.3558V10ZM24.2921 12.4151C24.5063 11.844 24.8353 11.4575 25.2769 11.199L24.2666 9.47299C23.3962 9.9825 22.7812 10.748 22.4194 11.7129L24.2921 12.4151ZM25.2679 11.2042C25.7805 10.9113 26.352 10.76 27.0037 10.76V8.76C26.0235 8.76 25.107 8.99267 24.2756 9.46776L25.2679 11.2042ZM26.0037 9.76V13.216H28.0037V9.76H26.0037ZM27.1216 12.223C25.9571 12.0848 24.8698 12.3236 23.9092 12.9572L25.0103 14.6268C25.5537 14.2684 26.1624 14.1232 26.8859 14.209L27.1216 12.223ZM23.9009 12.9627C22.8085 13.6989 22.3558 14.8901 22.3558 16.264H24.3558C24.3558 15.3339 24.639 14.8771 25.0186 14.6213L23.9009 12.9627ZM22.3558 16.264V22H24.3558V16.264H22.3558ZM23.3558 21H20.2598V23H23.3558V21ZM21.2598 22V10H19.2598V22H21.2598ZM20.2598 11H23.3558V9H20.2598V11ZM22.3558 10V12.064H24.3558V10H22.3558ZM38.5931 20.512L39.2956 21.2237L39.3002 21.2191L38.5931 20.512ZM29.5691 20.512L28.8574 21.2145L28.8667 21.2237L29.5691 20.512ZM29.5691 11.512L30.2762 12.2191L29.5691 11.512ZM38.5931 11.512L37.886 12.2191L37.8907 12.2237L38.5931 11.512ZM31.7531 18.376L31.0368 19.0739L31.046 19.0831L31.7531 18.376ZM31.7531 13.624L31.046 12.9168L31.0369 12.9261L31.7531 13.624ZM37.8907 19.8003C36.8512 20.8263 35.6018 21.336 34.0811 21.336V23.336C36.1124 23.336 37.8711 22.6297 39.2956 21.2237L37.8907 19.8003ZM34.0811 21.336C32.5604 21.336 31.3111 20.8263 30.2716 19.8003L28.8667 21.2237C30.2912 22.6297 32.0498 23.336 34.0811 23.336V21.336ZM30.2808 19.8095C29.2548 18.77 28.7451 17.5207 28.7451 16H26.7451C26.7451 18.0313 27.4514 19.79 28.8574 21.2145L30.2808 19.8095ZM28.7451 16C28.7451 14.4795 29.2545 13.2408 30.2762 12.2191L28.862 10.8049C27.4517 12.2152 26.7451 13.9685 26.7451 16H28.7451ZM30.2762 12.2191C31.3167 11.1787 32.5646 10.664 34.0811 10.664V8.664C32.0457 8.664 30.2856 9.38133 28.862 10.8049L30.2762 12.2191ZM34.0811 10.664C35.5977 10.664 36.8456 11.1787 37.886 12.2191L39.3002 10.8049C37.8767 9.38133 36.1166 8.664 34.0811 8.664V10.664ZM37.8907 12.2237C38.9268 13.2464 39.4411 14.4837 39.4411 16H41.4411C41.4411 13.9643 40.7234 12.2096 39.2956 10.8003L37.8907 12.2237ZM39.4411 16C39.4411 17.5165 38.9265 18.7645 37.886 19.8049L39.3002 21.2191C40.7238 19.7955 41.4411 18.0355 41.4411 16H39.4411ZM31.046 19.0831C31.8681 19.9051 32.9031 20.312 34.0811 20.312V18.312C33.4031 18.312 32.8862 18.0949 32.4602 17.6689L31.046 19.0831ZM34.0811 20.312C35.2591 20.312 36.2942 19.9051 37.1162 19.0831L35.702 17.6689C35.2761 18.0949 34.7591 18.312 34.0811 18.312V20.312ZM37.1162 19.0831C37.9452 18.2542 38.3451 17.1995 38.3451 16H36.3451C36.3451 16.7205 36.1211 17.2498 35.702 17.6689L37.1162 19.0831ZM38.3451 16C38.3451 14.8005 37.9452 13.7458 37.1162 12.9169L35.702 14.3311C36.1211 14.7502 36.3451 15.2795 36.3451 16H38.3451ZM37.1162 12.9169C36.2942 12.0949 35.2591 11.688 34.0811 11.688V13.688C34.7591 13.688 35.2761 13.9051 35.702 14.3311L37.1162 12.9169ZM34.0811 11.688C32.9031 11.688 31.8681 12.0949 31.046 12.9169L32.4602 14.3311C32.8862 13.9051 33.4031 13.688 34.0811 13.688V11.688ZM31.0369 12.9261C30.2276 13.7567 29.8411 14.8083 29.8411 16H31.8411C31.8411 15.2717 32.0626 14.7393 32.4694 14.3219L31.0369 12.9261ZM29.8411 16C29.8411 17.1917 30.2276 18.2433 31.0369 19.0739L32.4694 17.6781C32.0626 17.2607 31.8411 16.7283 31.8411 16H29.8411ZM55.6624 10V9H54.901L54.6984 9.73397L55.6624 10ZM58.9504 10L59.9034 10.303L60.3177 9H58.9504V10ZM55.1344 22V23H55.8657L56.0874 22.303L55.1344 22ZM52.1824 22L51.2255 22.2905L51.4409 23H52.1824V22ZM49.9744 14.728L50.9312 14.4375L49.9744 11.2861L49.0175 14.4375L49.9744 14.728ZM47.7664 22V23H48.5078L48.7232 22.2905L47.7664 22ZM44.8144 22L43.8614 22.303L44.083 23H44.8144V22ZM40.9984 10V9H39.631L40.0454 10.303L40.9984 10ZM44.2864 10L45.2501 9.73317L45.0471 9H44.2864V10ZM46.3264 17.368L45.3626 17.6348L46.2936 20.9973L47.2851 17.6522L46.3264 17.368ZM48.5104 10V9H47.7638L47.5516 9.71581L48.5104 10ZM51.4384 10L52.3974 9.71665L52.1857 9H51.4384V10ZM53.6224 17.392L52.6634 17.6753L53.6552 21.0322L54.5863 17.658L53.6224 17.392ZM55.6624 11H58.9504V9H55.6624V11ZM57.9974 9.69695L54.1814 21.697L56.0874 22.303L59.9034 10.303L57.9974 9.69695ZM55.1344 21H52.1824V23H55.1344V21ZM53.1392 21.7095L50.9312 14.4375L49.0175 15.0185L51.2255 22.2905L53.1392 21.7095ZM49.0175 14.4375L46.8095 21.7095L48.7232 22.2905L50.9312 15.0185L49.0175 14.4375ZM47.7664 21H44.8144V23H47.7664V21ZM45.7673 21.697L41.9514 9.69695L40.0454 10.303L43.8614 22.303L45.7673 21.697ZM40.9984 11H44.2864V9H40.9984V11ZM43.3226 10.2668L45.3626 17.6348L47.2901 17.1012L45.2501 9.73317L43.3226 10.2668ZM47.2851 17.6522L49.4691 10.2842L47.5516 9.71581L45.3676 17.0838L47.2851 17.6522ZM48.5104 11H51.4384V9H48.5104V11ZM50.4794 10.2833L52.6634 17.6753L54.5814 17.1087L52.3974 9.71665L50.4794 10.2833ZM54.5863 17.658L56.6263 10.266L54.6984 9.73397L52.6584 17.126L54.5863 17.658ZM70.9151 13.288L70.289 12.5083L69.1484 13.4243L70.4159 14.1545L70.9151 13.288ZM71.6111 20.632L70.9402 19.8905H70.9402L71.6111 20.632ZM60.7631 22H59.7631V23H60.7631V22ZM60.7631 5.2V4.2H59.7631V5.2H60.7631ZM71.0111 6.544L70.3349 7.28065L70.3411 7.28642L70.3475 7.29207L71.0111 6.544ZM64.0751 8.296V7.296H63.0751V8.296H64.0751ZM64.0751 11.992H63.0751V12.992H64.0751V11.992ZM68.6591 11.464L67.952 10.7569L67.9438 10.7651L67.9358 10.7735L68.6591 11.464ZM69.2831 18.352L69.9902 19.0591L69.9978 19.0516L70.0051 19.0439L69.2831 18.352ZM69.2831 15.52L68.5611 16.2119L68.5685 16.2196L68.576 16.2271L69.2831 15.52ZM64.0751 14.944V13.944H63.0751V14.944H64.0751ZM64.0751 18.904H63.0751V19.904H64.0751V18.904ZM70.4159 14.1545C71.5751 14.8223 72.1231 15.7702 72.1231 17.128H74.1231C74.1231 15.0618 73.1992 13.4497 71.4143 12.4215L70.4159 14.1545ZM72.1231 17.128C72.1231 18.2846 71.7277 19.178 70.9402 19.8905L72.282 21.3735C73.5106 20.262 74.1231 18.8194 74.1231 17.128H72.1231ZM70.9402 19.8905C70.132 20.6217 69.1375 21 67.8911 21V23C69.5887 23 71.0743 22.4663 72.282 21.3735L70.9402 19.8905ZM67.8911 21H60.7631V23H67.8911V21ZM61.7631 22V5.2H59.7631V22H61.7631ZM60.7631 6.2H67.3871V4.2H60.7631V6.2ZM67.3871 6.2C68.6003 6.2 69.5601 6.56938 70.3349 7.28065L71.6874 5.80735C70.5102 4.72662 69.0539 4.2 67.3871 4.2V6.2ZM70.3475 7.29207C71.1166 7.9743 71.4991 8.82573 71.4991 9.928H73.4991C73.4991 8.27827 72.8897 6.8737 71.6747 5.79592L70.3475 7.29207ZM71.4991 9.928C71.4991 11.0267 71.1011 11.8561 70.289 12.5083L71.5413 14.0677C72.8411 13.0239 73.4991 11.6133 73.4991 9.928H71.4991ZM67.3871 7.296H64.0751V9.296H67.3871V7.296ZM63.0751 8.296V11.992H65.0751V8.296H63.0751ZM64.0751 12.992H67.3871V10.992H64.0751V12.992ZM67.3871 12.992C68.1564 12.992 68.847 12.7154 69.3825 12.1545L67.9358 10.7735C67.7992 10.9166 67.6418 10.992 67.3871 10.992V12.992ZM69.3662 12.1711C69.918 11.6193 70.1871 10.9194 70.1871 10.144H68.1871C68.1871 10.4246 68.1042 10.6047 67.952 10.7569L69.3662 12.1711ZM70.1871 10.144C70.1871 9.38278 69.9359 8.68818 69.4065 8.13352L67.9598 9.51447C68.1023 9.66382 68.1871 9.84922 68.1871 10.144H70.1871ZM69.4065 8.13352C68.8647 7.56591 68.1626 7.296 67.3871 7.296V9.296C67.6677 9.296 67.8296 9.37809 67.9598 9.51447L69.4065 8.13352ZM67.8911 19.904C68.6941 19.904 69.4195 19.6298 69.9902 19.0591L68.576 17.6449C68.4108 17.8102 68.2082 17.904 67.8911 17.904V19.904ZM70.0051 19.0439C70.5671 18.4575 70.8351 17.7224 70.8351 16.912H68.8351C68.8351 17.2536 68.7351 17.4785 68.5611 17.6601L70.0051 19.0439ZM70.8351 16.912C70.8351 16.1091 70.561 15.3836 69.9902 14.8129L68.576 16.2271C68.7413 16.3924 68.8351 16.5949 68.8351 16.912H70.8351ZM70.0051 14.8281C69.4376 14.2359 68.7076 13.944 67.8911 13.944V15.944C68.1947 15.944 68.3926 16.0361 68.5611 16.2119L70.0051 14.8281ZM67.8911 13.944H64.0751V15.944H67.8911V13.944ZM63.0751 14.944V18.904H65.0751V14.944H63.0751ZM64.0751 19.904H67.8911V17.904H64.0751V19.904ZM77.9539 17.272V16.272H76.6397L76.9901 17.5386L77.9539 17.272ZM84.0259 18.328L84.5256 17.4618L83.7627 17.0217L83.2297 17.7229L84.0259 18.328ZM86.5219 19.768L87.3443 20.3368L87.9617 19.4442L87.0216 18.9018L86.5219 19.768ZM76.5139 20.536L75.8068 21.2431L76.5139 20.536ZM76.4899 11.488L77.2017 12.1904L77.2063 12.1856L76.4899 11.488ZM85.3939 11.488L84.6631 12.1707L84.6679 12.1757L85.3939 11.488ZM87.0019 17.272V18.272H87.8391L87.9863 17.4478L87.0019 17.272ZM77.9059 14.872L76.9311 14.6486L76.6508 15.872H77.9059V14.872ZM84.0259 14.872V15.872H85.2646L85.0034 14.6612L84.0259 14.872ZM82.9219 13.048L82.3294 13.8537L82.3406 13.8617L82.9219 13.048ZM78.9859 13.096L79.5933 13.8904L79.6006 13.8848L79.6078 13.8791L78.9859 13.096ZM76.9901 17.5386C77.2518 18.485 77.7635 19.2669 78.5572 19.7961C79.3345 20.3143 80.2891 20.528 81.3379 20.528V18.528C80.5466 18.528 80.0172 18.3657 79.6666 18.132C79.3323 17.9091 79.0719 17.563 78.9177 17.0054L76.9901 17.5386ZM81.3379 20.528C82.7715 20.528 83.9899 20.028 84.822 18.9331L83.2297 17.7229C82.8459 18.228 82.2722 18.528 81.3379 18.528V20.528ZM83.5262 19.1942L86.0222 20.6342L87.0216 18.9018L84.5256 17.4618L83.5262 19.1942ZM85.6994 19.1992C84.7243 20.6091 83.3066 21.336 81.2899 21.336V23.336C83.8812 23.336 85.9514 22.3509 87.3443 20.3368L85.6994 19.1992ZM81.2899 21.336C79.5227 21.336 78.2018 20.8097 77.221 19.8289L75.8068 21.2431C77.226 22.6623 79.0891 23.336 81.2899 23.336V21.336ZM77.221 19.8289C76.2235 18.8314 75.7139 17.5807 75.7139 16H73.7139C73.7139 18.0673 74.4043 19.8406 75.8068 21.2431L77.221 19.8289ZM75.7139 16C75.7139 14.4338 76.2166 13.1887 77.2017 12.1903L75.778 10.7857C74.3951 12.1873 73.7139 13.9502 73.7139 16H75.7139ZM77.2063 12.1856C78.1835 11.1821 79.4358 10.664 81.0499 10.664V8.664C78.9519 8.664 77.1643 9.36193 75.7734 10.7904L77.2063 12.1856ZM81.0499 10.664C82.5508 10.664 83.7281 11.1698 84.6631 12.1707L86.1246 10.8053C84.7876 9.37417 83.069 8.664 81.0499 8.664V10.664ZM84.6679 12.1757C85.6309 13.1922 86.1219 14.4442 86.1219 16H88.1219C88.1219 13.9718 87.4608 12.2158 86.1198 10.8003L84.6679 12.1757ZM86.1219 16C86.1219 16.3337 86.0885 16.6985 86.0174 17.0962L87.9863 17.4478C88.0753 16.9495 88.1219 16.4663 88.1219 16H86.1219ZM87.0019 16.272H77.9539V18.272H87.0019V16.272ZM77.9059 15.872H84.0259V13.872H77.9059V15.872ZM85.0034 14.6612C84.7867 13.6564 84.3068 12.8083 83.5031 12.2343L82.3406 13.8617C82.6569 14.0877 82.9131 14.4556 83.0484 15.0828L85.0034 14.6612ZM83.5143 12.2423C82.7909 11.7105 81.9573 11.448 81.0499 11.448V13.448C81.5505 13.448 81.9649 13.5855 82.3295 13.8537L83.5143 12.2423ZM81.0499 11.448C80.0383 11.448 79.118 11.7141 78.364 12.3129L79.6078 13.8791C79.9418 13.6139 80.3974 13.448 81.0499 13.448V11.448ZM78.3784 12.3016C77.6217 12.8803 77.151 13.6894 76.9311 14.6486L78.8806 15.0954C79.0128 14.5186 79.262 14.1437 79.5933 13.8904L78.3784 12.3016Z" fill="#145F12" mask="url(#path-2-outside-1_0_1)"/>
</g>
<rect x="-46.5" y="-34.5" width="1249" height="77" stroke="#11F085"/>
<rect x="-93.5" y="-56.5" width="1311" height="689" stroke="#F0DA10"/>
</g>
<defs>
<filter id="filter0_d_0_1" x="-53" y="-5" width="1178" height="48" filterUnits="userSpaceOnUse" color-interpolation-filters="sRGB">
<feFlood flood-opacity="0" result="BackgroundImageFix"/>
<feColorMatrix in="SourceAlpha" type="matrix" values="0 0 0 0 0 0 0 0 0 0 0 0 0 0 0 0 0 0 127 0" result="hardAlpha"/>
<feOffset dy="4"/>
<feGaussianBlur stdDeviation="2"/>
<feComposite in2="hardAlpha" operator="out"/>
<feColorMatrix type="matrix" values="0 0 0 0 0 0 0 0 0 0 0 0 0 0 0 0 0 0 0.25 0"/>
<feBlend mode="normal" in2="BackgroundImageFix" result="effect1_dropShadow_0_1"/>
<feBlend mode="normal" in="SourceGraphic" in2="effect1_dropShadow_0_1" result="shape"/>
</filter>
<clipPath id="clip0_0_1">
<rect width="1920" height="8106" fill="white" transform="translate(-409 -89)"/>
</clipPath>
</defs>
</svg>
